<svg xmlns="http://www.w3.org/2000/svg" viewBox="0 0 96 96">
  <defs>
    <linearGradient id="grad" x1="0%" y1="0%" x2="100%" y2="100%">
      <stop offset="0%" stop-color="#60a5fa" />
      <stop offset="100%" stop-color="#a855f7" />
    </linearGradient>
  </defs>
  <rect x="8" y="8" width="80" height="80" rx="20" fill="url(#grad)" />
  <path
    d="M48 24c13.254 0 24 10.746 24 24s-10.746 24-24 24S24 61.254 24 48 34.746 24 48 24zm0 10.5a13.5 13.5 0 1 0 0 27 13.5 13.5 0 0 0 0-27zm0 8.25a5.25 5.25 0 1 1 0 10.5 5.25 5.25 0 0 1 0-10.5z"
    fill="#f8fafc"
    opacity="0.85"
  />
</svg>
